<svg width="1200" height="160" viewBox="0 0 1200 160" fill="none" xmlns="http://www.w3.org/2000/svg">
<g clip-path="url(#clip0)">
<rect width="1200" height="160" fill="white"/>
<circle opacity="0.3" cx="1326.5" cy="380.5" r="484.5" fill="#D1ECFF"/>
<circle cx="844" cy="76" r="24" fill="#D1ECFF" fill-opacity="0.5"/>
<path d="M1791 1160L772 141" stroke="#44B0FF" stroke-opacity="0.4" stroke-dasharray="4 4"/>
<circle opacity="0.5" cx="331" cy="47" r="192.5" stroke="#D1ECFF" stroke-dasharray="4 4"/>
<circle opacity="0.5" cx="843.5" cy="75.5" r="103" stroke="#C4E4FC" stroke-dasharray="4 4"/>
<path d="M102.254 100.91L63.662 100.501C62.286 100.486 60.9724 99.9247 60.0109 98.9402L46.4722 85.0763C41.6379 80.126 45.1981 71.8019 52.1169 71.8782L102.562 72.4349C110.43 72.5217 116.735 78.9736 116.642 86.8414C116.549 94.6975 110.11 100.993 102.254 100.91Z" fill="#3D3D3D"/>
<path d="M87.8333 114.899L87.9421 109.04C87.9687 107.608 86.8275 106.426 85.3951 106.402L69.8777 106.148C68.7156 106.129 68.1186 107.531 68.9381 108.356L78.9812 118.455C82.2075 121.7 87.7484 119.474 87.8333 114.899Z" fill="#B4B4B4"/>
<path d="M75.3148 52.2961C75.4088 44.3703 81.9327 38.0338 89.8579 38.1707L102.988 38.3976C108.491 38.4927 113.45 41.7402 115.736 46.7462V46.7462C120.1 56.2976 113.014 67.1347 102.515 66.9686L89.3847 66.7609C81.5117 66.6364 75.2214 60.1695 75.3148 52.2961V52.2961Z" fill="#3D3D3D"/>
<path d="M168.539 63.5008C166.821 63.5008 165.574 63.8688 164.797 64.6049C164.15 65.2183 163.743 66.1441 163.579 67.3822C163.523 67.8047 163.866 68.1626 164.292 68.1626H168.214C169.037 68.1626 169.704 68.8299 169.704 69.653V76.9954H164.254C163.843 76.9954 163.509 77.329 163.509 77.7406V100.899C163.509 101.722 162.842 102.39 162.018 102.39H154.51C153.687 102.39 153.02 101.722 153.02 100.899V77.7406C153.02 77.329 152.686 76.9954 152.275 76.9954H150.401C149.577 76.9954 148.91 76.3281 148.91 75.5049V69.653C148.91 68.8299 149.577 68.1626 150.401 68.1626H153.02V67.7945C153.02 63.5417 154.247 60.2703 156.7 57.9803C159.195 55.6494 162.793 54.4839 167.496 54.4839C168.095 54.4839 168.603 54.4916 169.02 54.5068C169.407 54.521 169.704 54.8434 169.704 55.231V62.7766C169.704 63.2036 169.346 63.5433 168.92 63.5209L168.539 63.5008Z" fill="#3D3D3D"/>
<path d="M181.185 67.7332C183.802 67.7332 186.051 68.3261 187.932 69.512C189.306 70.378 190.417 71.473 191.268 72.7969C191.486 73.1361 192.103 72.989 192.103 72.5857V69.653C192.103 68.8299 192.77 68.1626 193.593 68.1626H201.04C201.863 68.1626 202.531 68.8299 202.531 69.653V100.899C202.531 101.722 201.863 102.39 201.04 102.39H193.593C192.77 102.39 192.103 101.722 192.103 100.899V96.1945C191.203 98.2392 189.813 99.8544 187.932 101.04C186.051 102.226 183.802 102.819 181.185 102.819C178.363 102.819 175.828 102.124 173.579 100.734C171.37 99.3024 169.612 97.2577 168.303 94.5997C167.036 91.9417 166.402 88.8338 166.402 85.2762C166.402 81.6776 167.036 78.5698 168.303 75.9526C169.612 73.2946 171.37 71.2704 173.579 69.8801C175.828 68.4488 178.363 67.7332 181.185 67.7332ZM184.558 76.9341C182.309 76.9341 180.489 77.6701 179.099 79.1423C177.75 80.6144 177.075 82.659 177.075 85.2762C177.075 87.8933 177.75 89.938 179.099 91.4101C180.489 92.8822 182.309 93.6183 184.558 93.6183C186.766 93.6183 188.566 92.8618 189.956 91.3487C191.387 89.8357 192.103 87.8115 192.103 85.2762C192.103 82.6999 191.387 80.6757 189.956 79.2036C188.566 77.6906 186.766 76.9341 184.558 76.9341Z" fill="#3D3D3D"/>
<path d="M226.805 67.7332C229.626 67.7332 232.141 68.4488 234.349 69.8801C236.598 71.2704 238.357 73.2946 239.624 75.9526C240.933 78.5698 241.587 81.6776 241.587 85.2762C241.587 88.8338 240.933 91.9417 239.624 94.5997C238.357 97.2577 236.598 99.3024 234.349 100.734C232.141 102.124 229.626 102.819 226.805 102.819C224.187 102.819 221.938 102.226 220.057 101.04C218.71 100.191 217.625 99.1217 216.802 97.832C216.584 97.4892 215.948 97.6373 215.948 98.044V100.899C215.948 101.722 215.28 102.39 214.457 102.39H206.949C206.126 102.39 205.459 101.722 205.459 100.899V58.4893C205.459 57.6662 206.126 56.9989 206.949 56.9989H214.457C215.28 56.9989 215.948 57.6662 215.948 58.4893V72.5084C215.948 72.9151 216.584 73.0632 216.802 72.7203C217.625 71.4307 218.71 70.3613 220.057 69.512C221.938 68.3261 224.187 67.7332 226.805 67.7332ZM223.431 76.9341C221.223 76.9341 219.403 77.6906 217.972 79.2036C216.581 80.6757 215.886 82.6999 215.886 85.2762C215.886 87.8115 216.581 89.8357 217.972 91.3487C219.403 92.8618 221.223 93.6183 223.431 93.6183C225.68 93.6183 227.479 92.8822 228.829 91.4101C230.219 89.938 230.914 87.8933 230.914 85.2762C230.914 82.659 230.219 80.6144 228.829 79.1423C227.479 77.6701 225.68 76.9341 223.431 76.9341Z" fill="#3D3D3D"/>
<path d="M274.808 68.1626C275.219 68.1626 275.553 68.4962 275.553 68.9078V101.645C275.553 102.056 275.219 102.39 274.808 102.39H265.748C265.336 102.39 265.003 102.056 265.003 101.645V97.8024C265.003 97.4076 264.42 97.2584 264.198 97.5854C263.275 98.9507 262.071 100.082 260.586 100.979C258.664 102.165 256.415 102.758 253.839 102.758C249.913 102.758 246.785 101.449 244.454 98.8321C242.164 96.215 241.019 92.6164 241.019 88.0364V68.9078C241.019 68.4962 241.353 68.1626 241.764 68.1626H250.701C251.113 68.1626 251.447 68.4962 251.447 68.9078V86.7483C251.447 89.0792 252.04 90.8989 253.225 92.2075C254.452 93.4752 256.088 94.109 258.133 94.109C260.259 94.109 261.936 93.4343 263.162 92.0848C264.389 90.7354 265.003 88.8134 265.003 86.3189V68.9078C265.003 68.4962 265.336 68.1626 265.748 68.1626H274.808Z" fill="#3D3D3D"/>
<path d="M288.232 56.9989C288.643 56.9989 288.977 57.3325 288.977 57.7441V101.645C288.977 102.056 288.643 102.39 288.232 102.39H279.233C278.822 102.39 278.488 102.056 278.488 101.645V57.7441C278.488 57.3325 278.822 56.9989 279.233 56.9989H288.232Z" fill="#3D3D3D"/>
<path d="M303.089 67.7332C305.706 67.7332 307.955 68.3261 309.836 69.512C311.21 70.378 312.322 71.473 313.172 72.7969C313.39 73.1361 314.007 72.989 314.007 72.5857V68.9078C314.007 68.4962 314.341 68.1626 314.752 68.1626H323.69C324.101 68.1626 324.435 68.4962 324.435 68.9078V101.645C324.435 102.056 324.101 102.39 323.69 102.39H314.752C314.341 102.39 314.007 102.056 314.007 101.645V97.9666C314.007 97.5634 313.39 97.4162 313.172 97.7555C312.322 99.0794 311.21 100.174 309.836 101.04C307.955 102.226 305.706 102.819 303.089 102.819C300.267 102.819 297.732 102.124 295.483 100.734C293.275 99.3024 291.516 97.2577 290.208 94.5997C288.94 91.9417 288.306 88.8338 288.306 85.2762C288.306 81.6776 288.94 78.5698 290.208 75.9526C291.516 73.2946 293.275 71.2704 295.483 69.8801C297.732 68.4488 300.267 67.7332 303.089 67.7332ZM306.463 76.9341C304.213 76.9341 302.394 77.6701 301.003 79.1423C299.654 80.6144 298.979 82.659 298.979 85.2762C298.979 87.8933 299.654 89.938 301.003 91.4101C302.394 92.8822 304.213 93.6183 306.463 93.6183C308.671 93.6183 310.47 92.8618 311.86 91.3487C313.292 89.8357 314.007 87.8115 314.007 85.2762C314.007 82.6999 313.292 80.6757 311.86 79.2036C310.47 77.6906 308.671 76.9341 306.463 76.9341Z" fill="#3D3D3D"/>
<path d="M290.131 121.527V108.307H292.901V113.277H292.986C293.107 113.01 293.283 112.739 293.513 112.464C293.747 112.184 294.05 111.952 294.423 111.767C294.8 111.577 295.268 111.483 295.828 111.483C296.556 111.483 297.228 111.672 297.844 112.051C298.459 112.425 298.951 112.991 299.32 113.748C299.688 114.502 299.873 115.446 299.873 116.582C299.873 117.688 299.693 118.622 299.333 119.384C298.977 120.141 298.492 120.716 297.876 121.108C297.265 121.495 296.58 121.689 295.821 121.689C295.284 121.689 294.826 121.6 294.449 121.424C294.076 121.247 293.77 121.026 293.532 120.759C293.294 120.488 293.111 120.215 292.986 119.939H292.862V121.527H290.131ZM292.843 116.569C292.843 117.159 292.925 117.673 293.09 118.112C293.255 118.551 293.493 118.893 293.805 119.139C294.117 119.38 294.497 119.5 294.943 119.5C295.394 119.5 295.776 119.378 296.088 119.132C296.4 118.883 296.636 118.538 296.797 118.099C296.961 117.656 297.044 117.146 297.044 116.569C297.044 115.997 296.964 115.494 296.803 115.059C296.643 114.624 296.406 114.284 296.094 114.039C295.782 113.794 295.398 113.671 294.943 113.671C294.492 113.671 294.111 113.789 293.799 114.026C293.491 114.263 293.255 114.598 293.09 115.033C292.925 115.468 292.843 115.98 292.843 116.569Z" fill="#B4B4B4"/>
<path d="M304.991 121.721C303.964 121.721 303.08 121.514 302.338 121.101C301.601 120.684 301.033 120.094 300.634 119.332C300.235 118.566 300.036 117.66 300.036 116.615C300.036 115.595 300.235 114.7 300.634 113.929C301.033 113.159 301.595 112.559 302.319 112.128C303.047 111.698 303.901 111.483 304.881 111.483C305.54 111.483 306.153 111.588 306.721 111.799C307.294 112.006 307.792 112.318 308.217 112.735C308.646 113.152 308.98 113.677 309.219 114.31C309.457 114.938 309.576 115.674 309.576 116.518V117.273H301.142V115.569H306.968C306.968 115.173 306.882 114.822 306.708 114.517C306.535 114.211 306.294 113.972 305.986 113.8C305.683 113.624 305.33 113.535 304.926 113.535C304.506 113.535 304.133 113.632 303.808 113.826C303.487 114.015 303.236 114.271 303.054 114.594C302.871 114.913 302.778 115.268 302.774 115.659V117.28C302.774 117.77 302.865 118.194 303.047 118.551C303.233 118.908 303.496 119.184 303.834 119.378C304.172 119.571 304.573 119.668 305.037 119.668C305.345 119.668 305.627 119.625 305.882 119.539C306.138 119.453 306.357 119.324 306.539 119.152C306.721 118.979 306.86 118.769 306.955 118.519L309.518 118.687C309.388 119.298 309.121 119.832 308.718 120.288C308.319 120.74 307.803 121.093 307.17 121.346C306.541 121.596 305.815 121.721 304.991 121.721Z" fill="#B4B4B4"/>
<path d="M315.415 111.612V113.677H309.4V111.612H315.415ZM310.766 109.236H313.536V118.48C313.536 118.734 313.575 118.932 313.653 119.074C313.731 119.212 313.839 119.309 313.978 119.365C314.121 119.421 314.286 119.449 314.472 119.449C314.602 119.449 314.732 119.438 314.863 119.416C314.993 119.39 315.092 119.371 315.162 119.358L315.597 121.405C315.459 121.448 315.264 121.497 315.012 121.553C314.761 121.613 314.455 121.65 314.095 121.663C313.428 121.689 312.842 121.6 312.339 121.398C311.841 121.196 311.453 120.882 311.175 120.456C310.898 120.03 310.761 119.492 310.766 118.842V109.236Z" fill="#B4B4B4"/>
<path d="M318.786 121.714C318.149 121.714 317.581 121.605 317.083 121.385C316.584 121.161 316.19 120.832 315.899 120.397C315.613 119.959 315.47 119.412 315.47 118.758C315.47 118.207 315.572 117.744 315.775 117.37C315.979 116.996 316.257 116.694 316.608 116.466C316.959 116.238 317.358 116.066 317.804 115.95C318.255 115.834 318.728 115.752 319.222 115.704C319.803 115.644 320.271 115.588 320.627 115.537C320.982 115.481 321.24 115.399 321.401 115.291C321.561 115.184 321.641 115.024 321.641 114.814V114.775C321.641 114.366 321.511 114.05 321.251 113.826C320.995 113.602 320.631 113.49 320.159 113.49C319.66 113.49 319.263 113.6 318.969 113.819C318.674 114.035 318.479 114.306 318.383 114.633L315.821 114.426C315.951 113.824 316.207 113.303 316.588 112.864C316.97 112.421 317.462 112.081 318.065 111.844C318.672 111.603 319.374 111.483 320.172 111.483C320.727 111.483 321.258 111.547 321.765 111.676C322.277 111.805 322.73 112.006 323.124 112.277C323.523 112.548 323.837 112.896 324.067 113.322C324.297 113.744 324.412 114.25 324.412 114.839V121.527H321.784V120.152H321.706C321.546 120.462 321.331 120.735 321.063 120.972C320.794 121.204 320.471 121.387 320.094 121.521C319.716 121.65 319.281 121.714 318.786 121.714ZM319.58 119.816C319.987 119.816 320.347 119.737 320.659 119.578C320.972 119.414 321.216 119.195 321.394 118.919C321.572 118.644 321.661 118.332 321.661 117.983V116.931C321.574 116.987 321.455 117.039 321.303 117.086C321.156 117.129 320.989 117.17 320.802 117.209C320.616 117.243 320.43 117.275 320.243 117.305C320.057 117.331 319.888 117.355 319.736 117.376C319.411 117.424 319.127 117.499 318.884 117.602C318.641 117.706 318.453 117.845 318.318 118.022C318.184 118.194 318.117 118.409 318.117 118.667C318.117 119.042 318.253 119.328 318.526 119.526C318.804 119.72 319.155 119.816 319.58 119.816Z" fill="#B4B4B4"/>
<path d="M1139.77 60.8691H1147.04L1143.4 52.0645L1139.77 60.8691ZM1143.4 38.1875L1123.59 45.3652L1126.56 71.7793L1143.4 81.0625L1160.25 71.7793L1163.31 45.3652L1143.4 38.1875ZM1155.94 70.918H1151.25L1148.76 64.6973H1138.14L1135.65 70.918H1130.96L1143.4 42.9727L1155.94 70.918Z" fill="#D81414"/>
<path d="M931.481 123L933.207 117.503H942.245L943.971 123H950.772L941.938 96.8182H933.513L924.68 123H931.481ZM934.715 112.696L937.617 103.415H937.822L940.737 112.696H934.715Z" fill="#2B2B2B"/>
<path d="M956.962 111.801C956.975 109.564 958.279 108.234 960.261 108.234C962.242 108.234 963.418 109.538 963.406 111.712V123H969.657V110.484C969.67 106.061 966.972 103.108 962.843 103.108C959.941 103.108 957.742 104.578 956.873 106.969H956.656V103.364H950.711V123H956.962V111.801Z" fill="#2B2B2B"/>
<path d="M979.801 130.773C985.72 130.773 989.76 128.075 989.76 123.077V103.364H983.534V106.726H983.355C982.6 104.923 980.887 103.108 977.794 103.108C973.69 103.108 969.97 106.266 969.97 113.156C969.97 119.83 973.511 122.732 977.819 122.732C980.708 122.732 982.639 121.389 983.38 119.574H983.598V123.026C983.598 125.531 982.064 126.439 979.967 126.439C977.96 126.439 976.758 125.672 976.426 124.457L970.507 124.79C970.967 128.229 974.201 130.773 979.801 130.773ZM979.992 118.18C977.679 118.18 976.387 116.301 976.387 113.156C976.387 110.024 977.666 107.991 979.992 107.991C982.281 107.991 983.61 109.973 983.61 113.156C983.61 116.314 982.268 118.18 979.992 118.18Z" fill="#2B2B2B"/>
<path d="M1003.53 114.524C1003.53 116.812 1002.08 118.091 1000.22 118.091C998.305 118.091 997.129 116.787 997.116 114.652V103.364H990.865V115.879C990.878 120.315 993.575 123.256 997.615 123.256C1000.56 123.256 1002.74 121.747 1003.61 119.344H1003.82V123H1009.77V103.364H1003.53V114.524Z" fill="#2B2B2B"/>
<path d="M1017.12 96.8182H1010.87V123H1017.12V96.8182Z" fill="#2B2B2B"/>
<path d="M1023.76 123.332C1026.49 123.332 1028.39 122.271 1029.46 120.264H1029.61V123H1035.49V109.653C1035.49 105.499 1031.8 103.108 1026.8 103.108C1021.52 103.108 1018.53 105.767 1018.03 109.347L1023.8 109.551C1024.06 108.298 1025.1 107.531 1026.75 107.531C1028.28 107.531 1029.25 108.273 1029.25 109.589V109.653C1029.25 110.855 1027.95 111.111 1024.6 111.405C1020.63 111.737 1017.3 113.207 1017.3 117.554C1017.3 121.44 1020 123.332 1023.76 123.332ZM1025.69 119.241C1024.24 119.241 1023.22 118.551 1023.22 117.247C1023.22 115.982 1024.22 115.214 1025.99 114.946C1027.16 114.78 1028.59 114.524 1029.29 114.153V116.02C1029.29 117.937 1027.68 119.241 1025.69 119.241Z" fill="#2B2B2B"/>
<path d="M1036.44 123H1042.69V112.338C1042.69 109.999 1044.35 108.426 1046.59 108.426C1047.33 108.426 1048.44 108.554 1049.04 108.759V103.325C1048.52 103.185 1047.86 103.095 1047.29 103.095C1045.14 103.095 1043.43 104.348 1042.71 106.943H1042.51V103.364H1036.44V123Z" fill="#2B2B2B"/>
<path d="M1072.61 103.364H1066.03L1062.4 116.889H1062.19L1058.57 103.364H1051.99L1058.71 123H1065.87L1072.61 103.364Z" fill="#2B2B2B"/>
<path d="M1080.67 123.371C1085.83 123.371 1089.21 120.878 1089.93 117.017L1084.19 116.851C1083.7 118.155 1082.43 118.858 1080.79 118.858C1078.39 118.858 1076.9 117.26 1076.9 114.857V114.69H1089.99V113.131C1089.99 106.662 1086.06 103.108 1080.48 103.108C1074.55 103.108 1070.74 107.173 1070.74 113.259C1070.74 119.548 1074.5 123.371 1080.67 123.371ZM1076.9 111.06C1076.99 109.104 1078.54 107.621 1080.61 107.621C1082.67 107.621 1084.15 109.053 1084.18 111.06H1076.9Z" fill="#2B2B2B"/>
<path d="M1090.31 123H1096.56V112.338C1096.56 109.999 1098.22 108.426 1100.46 108.426C1101.2 108.426 1102.31 108.554 1102.91 108.759V103.325C1102.39 103.185 1101.74 103.095 1101.16 103.095C1099.01 103.095 1097.3 104.348 1096.58 106.943H1096.38V103.364H1090.31V123Z" fill="#2B2B2B"/>
<path d="M1119.72 109.359C1119.39 105.473 1116.21 103.108 1110.89 103.108C1105.57 103.108 1102.18 105.422 1102.21 109.359C1102.18 112.376 1104.11 114.32 1108.04 115.048L1111.46 115.7C1113.09 116.02 1113.83 116.531 1113.85 117.401C1113.83 118.385 1112.73 119.037 1111.13 119.037C1109.35 119.037 1108.15 118.27 1107.88 116.838L1101.71 116.991C1102.16 120.878 1105.49 123.371 1111.11 123.371C1116.36 123.371 1120.18 120.75 1120.21 116.71C1120.18 113.847 1118.29 112.146 1114.38 111.392L1110.59 110.676C1108.93 110.344 1108.4 109.756 1108.41 109.001C1108.4 108.004 1109.56 107.391 1111 107.391C1112.65 107.391 1113.8 108.273 1113.98 109.513L1119.72 109.359Z" fill="#2B2B2B"/>
<path d="M1120.41 123H1126.66V103.364H1120.41V123ZM1123.54 101.075C1125.31 101.075 1126.75 99.7329 1126.75 98.0838C1126.75 96.4346 1125.31 95.1051 1123.54 95.1051C1121.77 95.1051 1120.33 96.4346 1120.33 98.0838C1120.33 99.7329 1121.77 101.075 1123.54 101.075Z" fill="#2B2B2B"/>
<path d="M1136.92 123.371C1143.1 123.371 1146.84 119.293 1146.84 113.246C1146.84 107.186 1143.1 103.108 1136.92 103.108C1130.75 103.108 1127 107.186 1127 113.246C1127 119.293 1130.75 123.371 1136.92 123.371ZM1136.96 118.653C1134.65 118.653 1133.37 116.455 1133.37 113.207C1133.37 109.947 1134.65 107.736 1136.96 107.736C1139.2 107.736 1140.48 109.947 1140.48 113.207C1140.48 116.455 1139.2 118.653 1136.96 118.653Z" fill="#2B2B2B"/>
<path d="M1153.42 111.801C1153.43 109.564 1154.73 108.234 1156.72 108.234C1158.7 108.234 1159.87 109.538 1159.86 111.712V123H1166.11V110.484C1166.12 106.061 1163.43 103.108 1159.3 103.108C1156.4 103.108 1154.2 104.578 1153.33 106.969H1153.11V103.364H1147.17V123H1153.42V111.801Z" fill="#2B2B2B"/>
</g>
<defs>
<clipPath id="clip0">
<rect width="1200" height="160" fill="white"/>
</clipPath>
</defs>
</svg>
